<mxfile host="app.diagrams.net" modified="2023-11-03T13:18:40.705Z" agent="Mozilla/5.0 (Windows NT 10.0; Win64; x64) AppleWebKit/537.36 (KHTML, like Gecko) Chrome/118.0.0.0 Safari/537.36" etag="ndEq5xDQYmxq5t9UvSY9" version="22.0.8" type="github">
  <diagram name="Page-1" id="PE3qTLpv-Fyfkt1PB4lq">
    <mxGraphModel dx="880" dy="426" grid="1" gridSize="10" guides="1" tooltips="1" connect="1" arrows="1" fold="1" page="1" pageScale="1" pageWidth="850" pageHeight="1100" math="0" shadow="0">
      <root>
        <mxCell id="0" />
        <mxCell id="1" parent="0" />
        <mxCell id="5KSFPB9_m-m947C3BJYy-2" style="edgeStyle=orthogonalEdgeStyle;rounded=0;orthogonalLoop=1;jettySize=auto;html=1;exitX=0.5;exitY=1;exitDx=0;exitDy=0;" edge="1" parent="1" source="5KSFPB9_m-m947C3BJYy-3" target="5KSFPB9_m-m947C3BJYy-6">
          <mxGeometry relative="1" as="geometry" />
        </mxCell>
        <mxCell id="5KSFPB9_m-m947C3BJYy-3" value="GET - /meta" style="rounded=1;whiteSpace=wrap;html=1;" vertex="1" parent="1">
          <mxGeometry x="320" y="40" width="160" height="60" as="geometry" />
        </mxCell>
        <mxCell id="5KSFPB9_m-m947C3BJYy-20" style="edgeStyle=orthogonalEdgeStyle;rounded=0;orthogonalLoop=1;jettySize=auto;html=1;exitX=0;exitY=0.5;exitDx=0;exitDy=0;" edge="1" parent="1" source="5KSFPB9_m-m947C3BJYy-6" target="5KSFPB9_m-m947C3BJYy-10">
          <mxGeometry relative="1" as="geometry">
            <mxPoint x="240" y="320" as="targetPoint" />
          </mxGeometry>
        </mxCell>
        <mxCell id="5KSFPB9_m-m947C3BJYy-31" style="edgeStyle=orthogonalEdgeStyle;rounded=0;orthogonalLoop=1;jettySize=auto;html=1;exitX=1;exitY=0.5;exitDx=0;exitDy=0;entryX=0.5;entryY=0;entryDx=0;entryDy=0;" edge="1" parent="1" source="5KSFPB9_m-m947C3BJYy-6" target="5KSFPB9_m-m947C3BJYy-14">
          <mxGeometry relative="1" as="geometry" />
        </mxCell>
        <mxCell id="5KSFPB9_m-m947C3BJYy-6" value="if same version" style="rhombus;whiteSpace=wrap;html=1;" vertex="1" parent="1">
          <mxGeometry x="360" y="160" width="80" height="80" as="geometry" />
        </mxCell>
        <mxCell id="5KSFPB9_m-m947C3BJYy-21" style="edgeStyle=orthogonalEdgeStyle;rounded=0;orthogonalLoop=1;jettySize=auto;html=1;exitX=0.5;exitY=1;exitDx=0;exitDy=0;entryX=0.5;entryY=0;entryDx=0;entryDy=0;" edge="1" parent="1" source="5KSFPB9_m-m947C3BJYy-10" target="5KSFPB9_m-m947C3BJYy-12">
          <mxGeometry relative="1" as="geometry" />
        </mxCell>
        <mxCell id="5KSFPB9_m-m947C3BJYy-32" style="edgeStyle=orthogonalEdgeStyle;rounded=0;orthogonalLoop=1;jettySize=auto;html=1;exitX=1;exitY=0.5;exitDx=0;exitDy=0;entryX=0.5;entryY=0;entryDx=0;entryDy=0;" edge="1" parent="1" source="5KSFPB9_m-m947C3BJYy-10" target="5KSFPB9_m-m947C3BJYy-14">
          <mxGeometry relative="1" as="geometry" />
        </mxCell>
        <mxCell id="5KSFPB9_m-m947C3BJYy-10" value="is lang cached?" style="rhombus;whiteSpace=wrap;html=1;" vertex="1" parent="1">
          <mxGeometry x="200" y="320" width="80" height="80" as="geometry" />
        </mxCell>
        <mxCell id="5KSFPB9_m-m947C3BJYy-12" value="Pull cached version" style="rounded=0;whiteSpace=wrap;html=1;" vertex="1" parent="1">
          <mxGeometry x="180" y="500" width="120" height="60" as="geometry" />
        </mxCell>
        <mxCell id="5KSFPB9_m-m947C3BJYy-13" style="edgeStyle=orthogonalEdgeStyle;rounded=0;orthogonalLoop=1;jettySize=auto;html=1;exitX=0.5;exitY=1;exitDx=0;exitDy=0;" edge="1" parent="1" source="5KSFPB9_m-m947C3BJYy-14" target="5KSFPB9_m-m947C3BJYy-17">
          <mxGeometry relative="1" as="geometry">
            <Array as="points">
              <mxPoint x="560" y="540" />
              <mxPoint x="560" y="615" />
              <mxPoint x="400" y="615" />
            </Array>
          </mxGeometry>
        </mxCell>
        <mxCell id="5KSFPB9_m-m947C3BJYy-14" value="GET - /language/translations/:id" style="rounded=0;whiteSpace=wrap;html=1;" vertex="1" parent="1">
          <mxGeometry x="470" y="500" width="180" height="60" as="geometry" />
        </mxCell>
        <mxCell id="5KSFPB9_m-m947C3BJYy-17" value="Cache verison and language" style="rounded=1;whiteSpace=wrap;html=1;" vertex="1" parent="1">
          <mxGeometry x="320" y="690" width="160" height="60" as="geometry" />
        </mxCell>
        <mxCell id="5KSFPB9_m-m947C3BJYy-23" value="no" style="shape=process;whiteSpace=wrap;html=1;backgroundOutline=1;" vertex="1" parent="1">
          <mxGeometry x="530" y="290" width="60" height="20" as="geometry" />
        </mxCell>
        <mxCell id="5KSFPB9_m-m947C3BJYy-26" value="no" style="shape=process;whiteSpace=wrap;html=1;backgroundOutline=1;" vertex="1" parent="1">
          <mxGeometry x="371" y="351" width="57.5" height="20" as="geometry" />
        </mxCell>
        <mxCell id="5KSFPB9_m-m947C3BJYy-29" value="yes" style="shape=process;whiteSpace=wrap;html=1;backgroundOutline=1;" vertex="1" parent="1">
          <mxGeometry x="210" y="260" width="60" height="20" as="geometry" />
        </mxCell>
        <mxCell id="5KSFPB9_m-m947C3BJYy-30" value="yes" style="shape=process;whiteSpace=wrap;html=1;backgroundOutline=1;" vertex="1" parent="1">
          <mxGeometry x="210" y="435" width="60" height="20" as="geometry" />
        </mxCell>
      </root>
    </mxGraphModel>
  </diagram>
</mxfile>
